<?xml version="1.0" encoding="UTF-8"?>
<svg version="1.1" xmlns="http://www.w3.org/2000/svg" width="200" height="200">
<path d="M0 0 C0.8048584 0.17160645 1.6097168 0.34321289 2.43896484 0.52001953 C23.15779979 5.08656992 45.86634116 13.41874741 57.8359375 31.94921875 C61.15102422 37.78955609 60.59905922 44.500904 60 51 C56.64071908 62.50632203 47.38658883 69.3047682 37.47265625 75.12109375 C20.39649372 84.3602773 2.12416699 88.55871407 -17 91 C-18.01964844 91.13277344 -19.03929688 91.26554687 -20.08984375 91.40234375 C-54.03157477 94.95721658 -98.58304022 91.49785335 -126.296875 69.4609375 C-133.42411071 63.46260962 -139.24640653 57.30757738 -140.390625 47.73046875 C-140.69545024 38.20467991 -138.23960238 31.67591065 -132.25390625 24.328125 C-101.83974495 -7.08754247 -39.86672834 -8.69618994 0 0 Z M-67 38 C-68.89921719 40.10757373 -68.89921719 40.10757373 -70 43 C-69.21838803 46.90805984 -68.10254768 49.4615519 -65 52 C-64.34 51.67 -63.68 51.34 -63 51 C-63.495 50.649375 -63.99 50.29875 -64.5 49.9375 C-66.7579216 47.02101794 -66.25596941 44.58357181 -66 41 C-65.67 40.01 -65.34 39.02 -65 38 C-65.66 38 -66.32 38 -67 38 Z M-15 38 C-14.67 38.99 -14.34 39.98 -14 41 C-13.54471545 47.2601626 -13.54471545 47.2601626 -15.5 50.4375 C-15.995 50.953125 -16.49 51.46875 -17 52 C-14.33685235 50.98984055 -12.96826025 49.9641648 -11.0625 47.8125 C-9.8586499 44.62583797 -10.03325796 44.16837532 -11.3125 41.1875 C-11.869375 40.135625 -12.42625 39.08375 -13 38 C-13.66 38 -14.32 38 -15 38 Z M-50 42 C-50.33 42.99 -50.66 43.98 -51 45 C-48.45215479 47.79049714 -46.54916968 48.86346301 -42.6953125 49.203125 C-35.79187634 49.42345103 -35.79187634 49.42345103 -30 46 C-30 44.68 -30 43.36 -30 42 C-37.52973301 38.38572815 -42.51322289 38.03641212 -50 42 Z M-4.8125 56.375 C-7.79375122 58.29190653 -10.63039271 59.8416975 -14 61 C-11.93997352 67.18007945 -4.42374256 70.93390506 1.02929688 74.08007812 C3.70467332 75.32894067 5.35017178 75.43298088 8.1875 74.625 C10.55773233 73.50822112 10.55773233 73.50822112 13 72 C14.11890625 71.45214844 15.2378125 70.90429688 16.390625 70.33984375 C23.67895051 66.8526109 23.67895051 66.8526109 29 61 C23.36373632 58.94870675 17.59147666 57.68324738 11.75 56.375 C10.74453125 56.14554688 9.7390625 55.91609375 8.703125 55.6796875 C1.60896565 53.76607712 1.60896565 53.76607712 -4.8125 56.375 Z M-47 57 C-47 57.33 -47 57.66 -47 58 C-42.38 58 -37.76 58 -33 58 C-33 57.67 -33 57.34 -33 57 C-37.62 57 -42.24 57 -47 57 Z " fill="#00A63E" transform="translate(140,14)"/>
<path d="M0 0 C2.49389537 1.24694768 2.64573541 2.11618835 3.75 4.625 C11.15254086 19.78129715 27.8272898 27.06799814 42.99609375 32.4765625 C47.27533338 33.89437016 51.6070635 34.99582399 56 36 C57.27302979 36.29414795 57.27302979 36.29414795 58.57177734 36.59423828 C86.07228036 42.62924908 116.5926002 42.30751361 144 36 C144.7852002 35.82339844 145.57040039 35.64679688 146.37939453 35.46484375 C165.21071318 31.05029542 184.67234781 22.83116725 195.625 6.296875 C196.85873423 4.23597805 197.96623642 2.1669275 199 0 C199.33 0 199.66 0 200 0 C200.66524465 8.60383081 199.85602622 14.75620398 195 22 C192.6875 24.6875 192.6875 24.6875 190 27 C189.24203125 27.77730469 189.24203125 27.77730469 188.46875 28.5703125 C166.76889091 49.79429748 128.81038236 53.2275909 100.1875 53.25 C99.41132324 53.25067474 98.63514648 53.25134949 97.83544922 53.25204468 C67.53744691 53.21031082 31.80984148 48.04220787 8.625 26.64453125 C6.56479339 24.55956255 4.72360287 22.36995394 3 20 C12.18463903 36.60300133 28.38287766 44.74766708 46 50 C87.96136731 61.57252022 138.42420622 61.91743384 177.328125 40.13671875 C183.38383604 36.35594729 189.24406794 32.6808 193.125 26.5625 C193.62644531 25.78132813 194.12789062 25.00015625 194.64453125 24.1953125 C195.71950539 22.4542881 196.77035236 20.69837015 197.8125 18.9375 C198.204375 18.298125 198.59625 17.65875 199 17 C199.33 17 199.66 17 200 17 C200.75404873 26.75236353 199.45224631 33.44980154 193.2734375 41.15234375 C173.179276 62.69361565 138.25235186 68.919549 110.10131836 70.12402344 C77.45644395 70.98935431 37.55120346 67.95661046 11.5625 45.625 C6.07627634 40.40683287 0.16731616 33.99940675 -0.09765625 26.08203125 C-0.08605469 25.00308594 -0.07445312 23.92414063 -0.0625 22.8125 C-0.04896484 21.18248047 -0.04896484 21.18248047 -0.03515625 19.51953125 C-0.02355469 18.68808594 -0.01195312 17.85664062 0 17 C0.66 17 1.32 17 2 17 C1.67257813 16.47921875 1.34515625 15.9584375 1.0078125 15.421875 C-0.31089836 12.25287991 -0.19340276 9.6701381 -0.125 6.25 C-0.09792969 4.49429688 -0.09792969 4.49429688 -0.0703125 2.703125 C-0.04710937 1.81109375 -0.02390625 0.9190625 0 0 Z " fill="#00A63E" transform="translate(0,69)"/>
<path d="M0 0 C2.72363329 1.36181664 2.96486228 2.86258987 4.1875 5.625 C11.1193156 19.68839535 26.71583945 27.07078512 41 32 C82.61174883 45.29172938 133.19734525 45.60976421 173.03027344 26.23413086 C184.84705728 20.13665829 193.47309328 12.26646809 199 0 C199.33 0 199.66 0 200 0 C200.43522798 7.93082094 200.77871157 14.40537804 196 21 C195.48695313 21.71542969 194.97390625 22.43085938 194.4453125 23.16796875 C182.44855808 38.12529561 162.93253723 44.521886 145 49 C143.90042969 49.27714844 142.80085937 49.55429688 141.66796875 49.83984375 C104.01924789 58.33298953 55.42202215 56.68366221 21.38671875 36.59375 C13.00454148 30.99648597 2.21635068 23.55134471 0 13 C-0.22929164 8.65364967 -0.17651273 4.34744314 0 0 Z " fill="#00A63E" transform="translate(0,119)"/>
<path d="M0 0 C2.71211563 1.35605782 2.92110085 2.80531837 4.125 5.5625 C11.14356237 19.82275822 26.41880049 27.34333066 40.89550781 32.31640625 C82.57523437 45.85506453 134.25233761 46.09585633 174 26 C185.52848769 19.48332932 193.77072816 12.26867624 199 0 C199.33 0 199.66 0 200 0 C200.71645428 10.15772961 199.6824522 17.02545603 193.34375 25.11328125 C173.82316052 46.41222952 139.48439565 52.14648349 112 54 C78.41598096 55.31016979 36.81191493 52.12510655 10.5 28.6875 C4.57281909 23.09119614 0.38867475 17.79188052 -0.28515625 9.484375 C-0.30925856 6.30287055 -0.223786 3.17278824 0 0 Z " fill="#00A63E" transform="translate(0,102)"/>
<path d="M0 0 C2 1 2 1 3.6875 4.5625 C8.22624087 13.83875872 15.157038 18.99923406 24 24 C24.88171875 24.51433594 25.7634375 25.02867187 26.671875 25.55859375 C45.23804966 35.65460681 68.45339789 40.07442873 89.453125 40.203125 C90.22719193 40.21018463 91.00125885 40.21724426 91.79878235 40.22451782 C125.51842556 40.46217184 164.10344974 38.26152314 190.2265625 13.92578125 C194.13775966 9.69003794 196.65619055 5.25013317 199 0 C199.33 0 199.66 0 200 0 C200.8499943 10.99325956 198.55355344 18.15147433 191.37231445 26.54980469 C172.561754 46.42789205 137.56333599 52.47442988 111.65734863 53.22851562 C76.97235716 54.0312971 35.60866367 51.72367775 8.68359375 26.7578125 C2.75401261 20.56683451 -0.29982561 14.84136763 -0.125 6.1875 C-0.10695312 5.02605469 -0.08890625 3.86460937 -0.0703125 2.66796875 C-0.04710937 1.78753906 -0.02390625 0.90710938 0 0 Z " fill="#00A63E" transform="translate(0,136)"/>
</svg>
