<?xml version="1.0" encoding="UTF-8"?>
<svg version="1.1" xmlns="http://www.w3.org/2000/svg" width="980" height="760">
<path d="M0 0 C92.4 0 184.8 0 280 0 C280 86.46 280 172.92 280 262 C272.12698413 255.25170068 272.12698413 255.25170068 269.37890625 252.66015625 C268.45368164 251.79003906 268.45368164 251.79003906 267.50976562 250.90234375 C266.86716797 250.29519531 266.22457031 249.68804687 265.5625 249.0625 C264.14717364 247.73042813 262.73180795 246.39839806 261.31640625 245.06640625 C260.59984863 244.39109863 259.88329102 243.71579102 259.14501953 243.02001953 C255.76895497 239.84069354 252.38424273 236.67061528 249 233.5 C247.66662093 232.25004878 246.3332877 231.00004867 245 229.75 C244.34 229.13125 243.68 228.5125 243 227.875 C221 207.25 221 207.25 218.99853516 205.37353516 C217.67020653 204.12828792 216.34175674 202.88316993 215.01318359 201.63818359 C211.60225393 198.44153565 208.19370121 195.24241079 204.7890625 192.0390625 C197.59740551 185.27679564 190.3855711 178.5511436 183 172 C178.46673574 173.45801845 175.32237885 176.02222308 171.8125 179.125 C170.64932995 180.13124089 169.48526069 181.13644323 168.3203125 182.140625 C167.7521582 182.63240234 167.18400391 183.12417969 166.59863281 183.63085938 C163.72493441 186.09202318 160.75292204 188.42653007 157.7890625 190.77734375 C154.19506441 193.64146828 150.62822672 196.53829914 147.0625 199.4375 C146.36664795 200.0032373 145.6707959 200.56897461 144.95385742 201.15185547 C140.25741797 204.97244406 135.57023332 208.8042035 130.88671875 212.640625 C125.29543846 217.21049414 119.686615 221.7588169 114.08056641 226.31054688 C110.71974572 229.0395869 107.3598984 231.76982464 104 234.5 C99.94191675 237.79750415 95.8835828 241.09469763 91.82421875 244.390625 C86.04264398 249.08543759 80.26150727 253.78055907 74.5 258.5 C68.0425548 263.78950668 61.56081424 269.04902661 55.08056641 274.31054688 C51.71974572 277.0395869 48.3598984 279.76982464 45 282.5 C40.94191675 285.79750415 36.8835828 289.09469763 32.82421875 292.390625 C27.04264398 297.08543759 21.26150727 301.78055907 15.5 306.5 C9.0425548 311.78950668 2.56081424 317.04902661 -3.91943359 322.31054688 C-7.28025428 325.0395869 -10.6401016 327.76982464 -14 330.5 C-18.05808325 333.79750415 -22.1164172 337.09469763 -26.17578125 340.390625 C-31.95735602 345.08543759 -37.73849273 349.78055907 -43.5 354.5 C-63.14888535 370.5843949 -63.14888535 370.5843949 -72.1875 377.625 C-77.27064136 381.58642857 -82.21172448 385.6840486 -87.10620117 389.87548828 C-91.56178054 393.67335533 -96.14721796 397.2832687 -100.76953125 400.875 C-104.7625202 403.99147918 -108.65310563 407.20533621 -112.5 410.5 C-116.91577693 414.28188195 -121.40917906 417.93267103 -126 421.5 C-131.24197422 425.57394142 -136.34432765 429.78020638 -141.39331055 434.09033203 C-145.26677178 437.39324688 -149.20340806 440.59882364 -153.19140625 443.76171875 C-156.89619081 446.71421048 -160.57347729 449.69993314 -164.25 452.6875 C-164.92393799 453.2345459 -165.59787598 453.7815918 -166.29223633 454.34521484 C-170.2181119 457.53623334 -174.12036308 460.75291258 -178 464 C-182.43897757 462.5583504 -185.50329108 460.11237316 -188.9375 457.0625 C-193.50875081 453.09402269 -198.14814408 449.26474281 -202.9375 445.5625 C-208.44275605 441.29095563 -213.75680697 436.83660162 -219.02441406 432.27636719 C-223.14076229 428.71785271 -227.33407099 425.2790482 -231.6015625 421.90234375 C-239.74101911 415.44645552 -247.70969456 408.77098827 -255.72729492 402.16479492 C-261.47433947 397.43023628 -267.23346913 392.71081214 -273 388 C-274.83345036 386.50014304 -276.66678171 385.0001406 -278.5 383.5 C-279.4075 382.7575 -280.315 382.015 -281.25 381.25 C-306 361 -330.75 340.75 -355.5 320.5 C-356.40492188 319.76007813 -357.30984375 319.02015625 -358.2421875 318.2578125 C-360.10341528 316.73403112 -361.9627483 315.20793284 -363.8203125 313.6796875 C-369.47955003 309.02933911 -375.19036836 304.46122331 -381 300 C-388.48618659 304.55409684 -395.12521768 310.0824101 -401.87890625 315.62890625 C-405.59059275 318.67596807 -409.34295335 321.66590613 -413.125 324.625 C-413.69436279 325.07061279 -414.26372559 325.51622559 -414.8503418 325.9753418 C-415.99401932 326.86966677 -417.13797954 327.76363035 -418.28222656 328.65722656 C-421.19271628 330.93233933 -424.09594496 333.2166837 -427 335.5 C-428.16663279 336.41670978 -429.33329944 337.33337648 -430.5 338.25 C-431.0775 338.70375 -431.655 339.1575 -432.25 339.625 C-437.5 343.75 -437.5 343.75 -439.24975586 345.12475586 C-440.4173041 346.04215009 -441.58478449 346.95963067 -442.75219727 347.87719727 C-445.6548279 350.15844245 -448.55859274 352.43821214 -451.46484375 354.71484375 C-456.81695098 358.91000342 -462.15642325 363.1182858 -467.45507812 367.38085938 C-473.38671351 372.15236418 -479.37334995 376.83539728 -485.4375 381.4375 C-491.72461783 386.20998428 -497.87841971 391.11828174 -503.98022461 396.12475586 C-508.74512686 400.019164 -513.59543505 403.78345574 -518.5 407.5 C-524.83217025 412.29992533 -531.03794861 417.22935978 -537.18701172 422.26123047 C-543.15523592 427.14244329 -549.20577596 431.91184101 -555.28222656 436.65722656 C-558.19271628 438.93233933 -561.09594496 441.2166837 -564 443.5 C-565.16663279 444.41670978 -566.33329944 445.33337648 -567.5 446.25 C-568.0775 446.70375 -568.655 447.1575 -569.25 447.625 C-574.5 451.75 -574.5 451.75 -576.24975586 453.12475586 C-577.4173041 454.04215009 -578.58478449 454.95963067 -579.75219727 455.87719727 C-582.6548279 458.15844245 -585.55859274 460.43821214 -588.46484375 462.71484375 C-593.81695098 466.91000342 -599.15642325 471.1182858 -604.45507812 475.38085938 C-610.38671709 480.15236706 -616.37344019 484.83527478 -622.4375 489.4375 C-628.7882949 494.26012135 -635.0155529 499.21112559 -641.18676758 504.26098633 C-647.15501466 509.14235234 -653.20568628 513.91177097 -659.28222656 518.65722656 C-662.19271615 520.93233923 -665.09597355 523.21664754 -668 525.5 C-671.54565031 528.28672011 -675.09199393 531.07254497 -678.640625 533.85546875 C-679.84377423 534.79944828 -681.04689953 535.74345832 -682.25 536.6875 C-682.82838623 537.1410083 -683.40677246 537.5945166 -684.00268555 538.06176758 C-688.43827327 541.54483924 -692.83320216 545.07629344 -697.20703125 548.63671875 C-699 550 -699 550 -700 550 C-700.39863298 535.88350271 -700.69648243 521.7678875 -700.88080692 507.64690113 C-700.96930791 501.08853494 -701.08918694 494.53396443 -701.2824707 487.9777832 C-701.46805618 481.64262236 -701.56899925 475.31109525 -701.61291313 468.97342491 C-701.64417649 466.56371532 -701.7052384 464.15419132 -701.79741096 461.74604225 C-702.47089996 443.41028217 -702.47089996 443.41028217 -698.37919235 437.76299667 C-694.45501164 433.84574688 -690.02218108 431.0387087 -685.21165276 428.3342495 C-681.50589577 426.09863435 -678.28895429 423.29746502 -675 420.5 C-668.89214838 415.47823416 -662.65724259 410.6501146 -656.35546875 405.875 C-651.49127417 402.17572222 -646.72411368 398.37619584 -642 394.5 C-636.58126279 390.05385665 -631.08655133 385.73333476 -625.5 381.5 C-619.16782975 376.70007467 -612.96205139 371.77064022 -606.81298828 366.73876953 C-600.84476408 361.85755671 -594.79422404 357.08815899 -588.71777344 352.34277344 C-585.80728372 350.06766067 -582.90405504 347.7833163 -580 345.5 C-578.83336721 344.58329022 -577.66670056 343.66662352 -576.5 342.75 C-575.9225 342.29625 -575.345 341.8425 -574.75 341.375 C-569.5 337.25 -569.5 337.25 -567.75024414 335.87524414 C-566.5826959 334.95784991 -565.41521551 334.04036933 -564.24780273 333.12280273 C-561.3451721 330.84155755 -558.44140726 328.56178786 -555.53515625 326.28515625 C-550.18304902 322.08999658 -544.84357675 317.8817142 -539.54492188 313.61914062 C-533.61328291 308.84763294 -527.62655981 304.16472522 -521.5625 299.5625 C-515.2117051 294.73987865 -508.9844471 289.78887441 -502.81323242 284.73901367 C-496.84498534 279.85764766 -490.79431372 275.08822903 -484.71777344 270.34277344 C-481.80728372 268.06766067 -478.90405504 265.7833163 -476 263.5 C-474.83336721 262.58329022 -473.66670056 261.66662352 -472.5 260.75 C-471.9225 260.29625 -471.345 259.8425 -470.75 259.375 C-451.5 244.25 -451.5 244.25 -449.75024414 242.87524414 C-448.5826959 241.95784991 -447.41521551 241.04036933 -446.24780273 240.12280273 C-443.3451721 237.84155755 -440.44140726 235.56178786 -437.53515625 233.28515625 C-431.4986907 228.55387244 -425.48376068 223.79781792 -419.5 219 C-414.0974545 214.66820416 -408.67740345 210.3602638 -403.22119141 206.09619141 C-400.18052527 203.71950923 -397.15601412 201.32568233 -394.15234375 198.90234375 C-393.52013916 198.39582275 -392.88793457 197.88930176 -392.23657227 197.36743164 C-391.02573121 196.39669441 -389.81894304 195.42087266 -388.61694336 194.43920898 C-382.96400632 189.92636009 -382.96400632 189.92636009 -380 190 C-377.80859375 191.5546875 -377.80859375 191.5546875 -375.4375 193.875 C-371.96628417 197.16378697 -368.47529609 200.31355411 -364.75 203.3125 C-360.48268967 206.76842033 -356.28688225 210.29377899 -352.125 213.875 C-345.98295547 219.15995661 -339.80907722 224.40532727 -333.61767578 229.63232422 C-331.97091021 231.02459417 -330.32689933 232.42005473 -328.68359375 233.81640625 C-323.69973752 238.04853633 -318.70440728 242.25737398 -313.625 246.375 C-308.50266476 250.54156423 -303.52582622 254.86201281 -298.54956055 259.20043945 C-294.03784637 263.12489097 -289.44674445 266.93426783 -284.80078125 270.69921875 C-280.32287264 274.37772387 -275.94400705 278.17039656 -271.55078125 281.94921875 C-264.31183876 288.17522367 -257.04134091 294.3608624 -249.625 300.375 C-244.50266476 304.54156423 -239.52582622 308.86201281 -234.54956055 313.20043945 C-230.03784637 317.12489097 -225.44674445 320.93426783 -220.80078125 324.69921875 C-217.53669665 327.38059368 -214.32764758 330.12080191 -211.125 332.875 C-210.53904053 333.37845947 -209.95308105 333.88191895 -209.34936523 334.40063477 C-206.96763368 336.44767534 -204.58641306 338.49530809 -202.20605469 340.54394531 C-200.47353254 342.03263806 -198.737216 343.51678947 -197 345 C-196.48453613 345.44456543 -195.96907227 345.88913086 -195.43798828 346.34716797 C-192.10262702 349.18759766 -188.6769575 351.63624161 -185 354 C-184.33355469 353.45472656 -183.66710937 352.90945313 -182.98046875 352.34765625 C-168.5 340.5 -168.5 340.5 -165.73046875 338.234375 C-163.96177205 336.78702949 -162.19351457 335.33914699 -160.42578125 333.890625 C-154.26820312 328.84674935 -148.09370109 323.82403544 -141.91455078 318.80664062 C-136.2650574 314.2181923 -130.62950595 309.61294873 -125 305 C-123.16678352 303.49985719 -121.33344854 301.99985918 -119.5 300.5 C-118.13875 299.38625 -118.13875 299.38625 -116.75 298.25 C-108.5 291.5 -108.5 291.5 -105.73046875 289.234375 C-103.96177205 287.78702949 -102.19351457 286.33914699 -100.42578125 284.890625 C-94.26820312 279.84674935 -88.09370109 274.82403544 -81.91455078 269.80664062 C-76.2650574 265.2181923 -70.62950595 260.61294873 -65 256 C-62.24372321 253.74450597 -59.48709445 251.48944257 -56.73046875 249.234375 C-54.96177205 247.78702949 -53.19351457 246.33914699 -51.42578125 244.890625 C-45.26820312 239.84674935 -39.09370109 234.82403544 -32.91455078 229.80664062 C-27.2650574 225.2181923 -21.62950595 220.61294873 -16 216 C-13.24372321 213.74450597 -10.48709445 211.48944257 -7.73046875 209.234375 C-5.96177205 207.78702949 -4.19351457 206.33914699 -2.42578125 204.890625 C3.73179688 199.84674935 9.90629891 194.82403544 16.08544922 189.80664062 C21.7349426 185.2181923 27.37049405 180.61294873 33 176 C35.75627679 173.74450597 38.51290555 171.48944257 41.26953125 169.234375 C43.03822795 167.78702949 44.80648543 166.33914699 46.57421875 164.890625 C52.73179688 159.84674935 58.90629891 154.82403544 65.08544922 149.80664062 C70.7349426 145.2181923 76.37049405 140.61294873 82 136 C84.74840686 133.75094603 87.49716329 131.50232021 90.24609375 129.25390625 C92.09337522 127.74201773 93.93971875 126.22898251 95.78515625 124.71484375 C101.82157327 119.7651516 107.89271209 114.86198409 114 110 C109.52783965 104.57406138 104.72570259 99.76603316 99.5625 95 C94.78782983 90.56910608 90.07550814 86.1052973 85.48999023 81.47851562 C83.81165046 79.81310096 82.06476671 78.26508046 80.25 76.75 C76.8416152 73.81720378 73.65600836 70.69927099 70.5 67.5 C67.42610481 64.38419758 64.33297786 61.34122703 61 58.5 C57.14877931 55.2169922 53.6171114 51.64595488 50.06640625 48.046875 C47.46094768 45.41976442 44.81546575 42.90006916 42 40.5 C38.14956985 37.2176661 34.61854421 33.64745151 31.06860352 30.04907227 C27.84633552 26.79999393 24.50659355 23.77556137 21.02734375 20.80859375 C17.69414931 17.83505035 14.60820527 14.61666562 11.47265625 11.4375 C8.59609674 8.60183944 5.59232541 5.96661443 2.49609375 3.375 C1 2 1 2 0 0 Z " fill="#00A63E" transform="translate(700,1)"/>
<path d="M0 0 C0 167.31 0 334.62 0 507 C-48.51 507 -97.02 507 -147 507 C-147.33078476 458.17447243 -147.6077047 409.35000293 -147.76597994 360.52367522 C-147.78474018 354.75723658 -147.80415505 348.99080032 -147.82397461 343.22436523 C-147.82790927 342.07638858 -147.83184392 340.92841193 -147.83589781 339.74564811 C-147.90113948 321.16602991 -148.01939138 302.58710902 -148.15729194 284.00790427 C-148.29764561 264.93892575 -148.38089834 245.87031201 -148.41132742 226.80083817 C-148.43189365 215.03675595 -148.49680421 203.27464469 -148.618747 191.51116934 C-148.69813825 183.44061085 -148.72197991 175.37106876 -148.70252066 167.30014829 C-148.69292625 162.64514938 -148.70745118 157.9935893 -148.78808212 153.33920479 C-149.2721651 123.96791481 -149.2721651 123.96791481 -143.74389839 117.01326561 C-140.74798458 114.07191547 -137.55187479 111.92216121 -133.83269894 109.99881876 C-131.04853072 108.48145037 -128.76029198 106.4467697 -126.375 104.375 C-125.50617187 103.67117188 -124.63734375 102.96734375 -123.7421875 102.2421875 C-120.62999852 99.69746317 -117.56273503 97.10381775 -114.5 94.5 C-109.65051278 90.37886052 -104.74838877 86.33008388 -99.8125 82.3125 C-96.68200334 79.73853608 -93.58827539 77.12430914 -90.5 74.5 C-85.65040619 70.37898366 -80.74839194 66.33008646 -75.8125 62.3125 C-72.68200334 59.73853608 -69.58827539 57.12430914 -66.5 54.5 C-61.65040619 50.37898366 -56.74839194 46.33008646 -51.8125 42.3125 C-48.68200334 39.73853608 -45.58827539 37.12430914 -42.5 34.5 C-37.65040619 30.37898366 -32.74839194 26.33008646 -27.8125 22.3125 C-24.68199839 19.73853201 -21.58845814 17.12410002 -18.5 14.5 C-14.27133749 10.9111843 -10.02802649 7.34242601 -5.75 3.8125 C-4.41195312 2.70841797 -4.41195312 2.70841797 -3.046875 1.58203125 C-1 0 -1 0 0 0 Z " fill="#00A63E" transform="translate(882,252)"/>
<path d="M0 0 C2.21591974 0.86192446 3.54668442 1.82960773 5.3125 3.41357422 C5.91980957 3.95062988 6.52711914 4.48768555 7.15283203 5.04101562 C7.7920459 5.61770996 8.43125977 6.1944043 9.08984375 6.78857422 C10.44165771 7.98507477 11.79452826 9.18038261 13.1484375 10.37451172 C13.81085449 10.96071289 14.47327148 11.54691406 15.15576172 12.15087891 C17.608297 14.29692726 20.12012152 16.36243692 22.65234375 18.41357422 C26.65473286 21.65586569 30.6033001 24.9525055 34.52734375 28.28857422 C39.37265306 32.40616327 44.2695017 36.4526355 49.203125 40.46435547 C52.92991389 43.53135324 56.6043464 46.6587015 60.26171875 49.80810547 C61.01775391 50.45392578 61.01775391 50.45392578 61.7890625 51.11279297 C62.26944615 51.53208049 62.7498298 51.95136801 63.24477053 52.38336122 C65.00134411 53.84453018 65.00134411 53.84453018 67.05976057 54.92059863 C70.47081489 56.94122122 72.65507701 58.47274962 73.76204014 62.38545299 C74.0392937 65.73225313 74.05477778 68.99691672 73.98937988 72.35482788 C73.99621528 73.63402277 74.00305068 74.91321765 74.01009321 76.23117602 C74.02796211 79.77563921 73.99601698 83.3181645 73.95586872 86.86238074 C73.9212989 90.68644046 73.93301346 94.51039218 73.93908691 98.33456421 C73.94328046 104.95800011 73.91819554 111.58080525 73.8731842 118.20408249 C73.80814864 127.7800985 73.78733083 137.35580972 73.77728027 146.93202265 C73.7597741 162.46885204 73.70654269 178.00534529 73.63085938 193.54199219 C73.55741961 208.63377223 73.50088778 223.72546049 73.46679688 238.81738281 C73.4646529 239.75723577 73.46250892 240.69708873 73.46029997 241.66542208 C73.44366445 249.01576359 73.4280091 256.3661071 73.41266346 263.71645141 C73.33720284 299.74080088 73.17625563 335.76430884 73.02734375 371.78857422 C24.51734375 371.78857422 -23.99265625 371.78857422 -73.97265625 371.78857422 C-74.41630109 293.85496404 -74.41630109 293.85496404 -74.50976562 261.32177734 C-74.53130204 253.87524145 -74.55352729 246.42870809 -74.5769043 238.98217773 C-74.58125615 237.58223677 -74.58125615 237.58223677 -74.58569592 236.15401417 C-74.63353128 221.08898479 -74.72024852 206.02441751 -74.82133701 190.95966209 C-74.92422516 175.49768778 -74.98530711 160.03595528 -75.00762969 144.57365268 C-75.02271926 135.03321424 -75.07036364 125.49408137 -75.15973739 115.95404487 C-75.21791052 109.41092233 -75.23545191 102.86847409 -75.2211714 96.32511175 C-75.2141286 92.55002987 -75.22487222 88.77722775 -75.28391647 85.00255203 C-75.34753534 80.90541365 -75.32550158 76.81311223 -75.29545593 72.71559143 C-75.32749719 71.52783114 -75.35953844 70.34007084 -75.39255065 69.11631781 C-75.29113224 64.00065515 -75.05141334 60.99222672 -71.5594517 57.09597576 C-68.78637141 54.81094916 -65.95991672 52.78133913 -62.97265625 50.78857422 C-61.77867251 49.81944927 -60.59825194 48.83299173 -59.44140625 47.81982422 C-53.60820754 42.84625479 -47.7306515 37.94043082 -41.78515625 33.10107422 C-38.65465959 30.5271103 -35.56093164 27.91288336 -32.47265625 25.28857422 C-27.63464075 21.17739673 -22.75199951 17.1294535 -17.8125 13.14013672 C-15.68198618 11.37594234 -13.60383077 9.58779194 -11.5390625 7.74951172 C-10.95640625 7.23710937 -10.37375 6.72470703 -9.7734375 6.19677734 C-8.63525486 5.19287467 -7.50590554 4.17884578 -6.38671875 3.15380859 C-2.48493766 -0.26633119 -2.48493766 -0.26633119 0 0 Z " fill="#00A63E" transform="translate(318.97265625,387.21142578125)"/>
<path d="M0 0 C0 100.65 0 201.3 0 305 C-48.51 305 -97.02 305 -147 305 C-147 228.77 -147 152.54 -147 74 C-143.77291345 75.93625193 -141.154184 77.55807877 -138.328125 79.890625 C-137.3371582 80.70333862 -137.3371582 80.70333862 -136.32617188 81.5324707 C-135.64103516 82.09925537 -134.95589844 82.66604004 -134.25 83.25 C-132.82870821 84.41607581 -131.40683655 85.58144519 -129.984375 86.74609375 C-128.96053711 87.58503174 -128.96053711 87.58503174 -127.91601562 88.44091797 C-124.32868206 91.35996895 -120.67508218 94.19264555 -117 97 C-112.2201511 93.97691026 -108.04091008 90.5593518 -103.8125 86.8125 C-99.40777789 82.95036128 -94.99028329 79.12565976 -90.4375 75.4375 C-86.27518204 72.06448085 -82.18636618 68.6180635 -78.125 65.125 C-77.53541504 64.61791504 -76.94583008 64.11083008 -76.33837891 63.58837891 C-75.45351807 62.82726807 -75.45351807 62.82726807 -74.55078125 62.05078125 C-67.28968997 55.80572679 -59.99446571 49.6036885 -52.5625 43.5625 C-47.14429421 39.15086945 -41.8472915 34.60676358 -36.55078125 30.05078125 C-28.29581199 22.95092111 -19.96984099 15.94868119 -11.51953125 9.08203125 C-8.43359998 6.53195161 -5.43626558 3.89263902 -2.4609375 1.21484375 C-1 0 -1 0 0 0 Z " fill="#00A63E" transform="translate(637,454)"/>
<path d="M0 0 C0 78.21 0 156.42 0 237 C-48.51 237 -97.02 237 -147 237 C-147.350625 217.138125 -147.70125 197.27625 -148.0625 176.8125 C-148.21726807 170.56159424 -148.37203613 164.31068848 -148.53149414 157.87036133 C-148.60827637 150.18493652 -148.60827637 150.18493652 -148.62254333 146.57695007 C-148.64850189 144.07866312 -148.70799823 141.58057798 -148.79478455 139.08366394 C-149.47279216 118.53374976 -149.47279216 118.53374976 -145.32959366 112.61290169 C-141.37861821 108.58985401 -136.92003184 105.73040284 -131.96551228 103.09036541 C-129.41777196 101.67700974 -127.26860744 99.93118359 -125.078125 98.01953125 C-124.43286865 97.48126709 -123.7876123 96.94300293 -123.12280273 96.38842773 C-122.50477783 95.86837158 -121.88675293 95.34831543 -121.25 94.8125 C-115.36821521 89.91654215 -109.40097246 85.190627 -103.30859375 80.55859375 C-99.47381883 77.61926034 -95.73952574 74.5589675 -92 71.5 C-87.19828472 67.57381116 -82.37008807 63.69816923 -77.4375 59.9375 C-72.76317404 56.37116242 -68.14666279 52.74393535 -63.5625 49.0625 C-58.70654847 45.16279739 -53.83749818 41.28175443 -48.9375 37.4375 C-48.36249756 36.98624756 -47.78749512 36.53499512 -47.19506836 36.07006836 C-44.3238633 33.81835634 -41.44992789 31.57017465 -38.57421875 29.32421875 C-37.42423821 28.42478716 -36.2744996 27.52504617 -35.125 26.625 C-34.55475098 26.17850098 -33.98450195 25.73200195 -33.39697266 25.27197266 C-28.82164541 21.6757068 -24.31519593 17.99903907 -19.8125 14.3125 C-2.30165244 0 -2.30165244 0 0 0 Z " fill="#00A63E" transform="translate(147,522)"/>
</svg>
